<svg width="375" height="300" viewBox="0 0 375 300" fill="none" xmlns="http://www.w3.org/2000/svg">
<g clip-path="url(#clip0)">
<path d="M357.152 262.522L372.15 262.491V281.973V302.085V309.368L372.037 324.565V335.289V343.367V349.918V370.159H349.936H340.238L335.671 368.439L304.775 357.11L281.546 348.668L281.772 346.776L283.012 344.471L286.057 343.759L287.015 340.827L286.226 338.715L283.971 338.594L283.181 337.537L283.745 334.977L282.843 333.473L282.899 331.614L284.478 331.008L286.057 328.853L286.508 326.107L285.887 321.781L287.466 319.848L287.522 318.707L290.285 317.066L292.146 314.616L288.988 311.805L286.959 306.845L284.309 303.711L284.365 301.292L285.324 298.674L284.985 295.048L283.632 291.735L284.027 289.464L283.238 287.761L283.914 284.536L282.617 282.338L282.448 280.282L284.478 279.29L287.861 279.165L290.623 281.764L291.977 281.566L293.612 278.266L293.499 265.551V262.459H311.597H317.235L334.938 262.438L345.369 262.406L357.152 262.522Z" fill="#363636" stroke="#222222" stroke-miterlimit="10"/>
<path d="M224.771 342.906L223.643 341.972L222.177 338.553L225.673 342.213L224.771 342.906ZM226.406 333.594L224.094 333.089L222.967 330.29L225.729 331.584L226.406 333.594ZM198.272 322.38L196.355 320.204L199.4 319.695L200.02 321.475L198.272 322.38ZM203.741 321.15L201.993 320.682L201.317 318.89L207.011 320.438L203.741 321.15ZM164.106 160.441L177.355 160.68L186.263 160.748L200.076 160.714V177.749V207.934L200.02 213.517L199.964 216.203L200.02 219.253V220.319V221.232L200.076 222.623L201.542 223.947L206.673 228.463L210.619 231.951L213.326 234.376L224.771 244.742L234.074 253.303L244.561 263.04L264.576 281.993L268.353 285.691L284.365 301.292L284.309 303.711L286.959 306.845L288.988 311.805L292.146 314.616L290.285 317.066L287.522 318.707L287.466 319.847L285.887 321.781L286.508 326.107L286.057 328.853L284.478 331.008L282.899 331.614L282.843 333.473L283.745 334.977L283.181 337.536L283.971 338.594L286.226 338.714L287.015 340.826L286.057 343.759L283.012 344.471L261.249 346.335L245.237 347.907V345.323L243.489 344.491L242.756 342.143L243.264 341.56L242.305 337.567L239.204 332.907L237.851 331.948L233.284 327.82L233.228 327.769L232.664 327.617V327.647L229.62 325.194V325.072L229.451 324.96V325.041L227.985 324.808L227.195 325.488L224.715 324.656L225.335 323.376L224.094 320.784L222.967 319.654L219.189 319.959L216.596 319.511L212.367 317.616L211.465 315.372L208.308 313.267L206.898 312.49L201.993 312.664L199.964 311.631L195.453 311.426L192.578 311.754L192.07 310.464L189.871 309.398L190.548 306.834L189.871 301.786L190.153 299.138L185.981 296.567L187.052 294.872L185.812 292.678L184.233 292.44L181.64 289.007L179.779 288.508L178.934 285.983L177.073 284.276L176.284 281.868L175.325 281.534L173.126 278.234L170.251 276.089L169.011 270.74L171.435 269.205L171.717 265.319L170.477 263.462L166.981 263.367L164.049 260.355L162.019 257.761L162.358 255.374L161.568 252.994L160.554 252.26L160.779 248.479L160.61 247.145L162.132 246.451L162.414 248.479L162.978 250.77L164.557 251.164L166.812 253.281L168.842 253.345L166.868 252.548L166.135 249.322L163.485 246.676L163.767 244.71L162.414 243.619L164.782 241.509L166.192 242.195L168.165 241.52L172.112 242.377L174.874 240.662L175.213 241.863L175.325 240.501L173.69 240.812L174.029 239.032L171.83 241.413L170.082 241.67L167.77 240.008L166.586 241.798L164.839 241.241L164.049 239.547H163.88L164.726 241.048L162.301 239.568L162.189 239.525L160.779 240.426L159.99 239.514L161.005 240.555L160.666 244.089L161.738 245.052L160.328 246.27L155.818 242.805L153.901 241.927L152.829 242.495L153.619 240.308L152.829 236.754L150.913 233.676L148.939 232.426L144.485 227.273L141.271 223.6L142.061 222.145L139.918 215.57L140.82 211.779L139.524 205.705L136.817 202.218L135.464 200.135L131.518 196.91L130.785 193.212L132.927 187.825L134.788 185.564L133.716 186.6L135.239 182.629L134.675 180.124L135.577 176.818L136.141 171.873L134.788 166.277L133.209 165.236L133.886 160.646L140.031 160.714L144.767 160.589L149.334 160.544L164.106 160.441Z" fill="#363636" stroke="#222222" stroke-miterlimit="10"/>
<path d="M414.942 181.612L416.972 181.623H431.349H436.593L450.575 181.556L458.073 181.545H461.118H472.507H473.071H481.979V186.801V187.869V193.19V195.062V202.174L482.035 210.948V211.068L482.092 219.906V221.657V228.701V230.365V237.303V237.432L482.148 247.882V249.748V254.801V262.597L467.094 262.47H465.741L451.251 262.554L433.266 262.565H432.195L424.414 262.554L419.848 262.565L412.518 262.597L397.634 262.47H396.675L382.58 262.491H372.15V252.91L372.206 245.052V239.622L371.924 232.674L372.037 215.167V212.501V209.184V197.673V188.771V181.578L389.853 181.545L399.269 181.522L406.485 181.545L414.942 181.612Z" fill="#363636" stroke="#222222" stroke-miterlimit="10"/>
<path d="M262.151 3.41797V15.3067L262.095 22.0749V27.6463L265.534 32.891L267.225 34.1955L267.733 36.6252L266.662 37.6258L268.748 39.2998L266.662 40.6349L269.875 42.2301L271.003 43.8854L273.596 44.4699L273.878 46.0477L275.683 47.3878L277.825 51.1028L279.235 51.931L279.404 53.635L283.689 56.4329L284.985 58.7944L289.101 58.1921L286.677 73.3074L288.199 75.6492L285.38 78.3134L286.508 79.7521L285.436 83.1791L286.902 83.0224L288.876 85.3583L295.303 80.0783L297.276 82.0941L297.84 86.5367L299.137 89.7655L303.027 94.8859L302.238 96.7709L304.662 100.402L306.128 99.5695L308.383 101.626L309.906 106.119L309.962 107.799L312.894 109.417L313.458 107.018L318.306 107.125L319.659 107.81L320.11 106.013L321.689 105.125L324.057 106.226L327.778 105.267L328.511 106.474L331.725 105.575L333.416 105.279L334.036 102.065L335.502 101.127L337.983 103.987L337.814 104.947L340.689 107.267V118.006L340.746 128.505V132.5V138.875L340.689 149.725V160.578L333.473 160.623L324.001 160.68L323.099 160.657L310.018 160.646L293.668 160.748H289.89L277.994 160.691L266.549 160.68L246.929 160.646L246.759 160.612V124.602V121.121L247.436 120.267L248.225 117.935L247.605 116.586L248.789 114.33L245.406 111.505L243.715 111.045L243.658 107.03L244.673 106.143L246.477 101.281L248.789 99.1769L250.593 93.8706L252.116 89.6576L254.145 84.3113L255.611 82.2026L254.427 79.0511L250.368 76.4733L248.507 73.3316L247.436 71.1193L248.338 69.3416L246.196 65.3144L246.534 63.5407V63.5285V60.9061V47.4622V44.4201V41.9312V27.6841V26.0697L246.59 7.10343V3.45655L262.151 3.41797Z" fill="#363636" stroke="#222222" stroke-miterlimit="10"/>
<path d="M293.217 3.45655L298.855 3.49513L322.704 3.46941L337.194 3.49513L345.482 3.46941L365.159 3.43083L384.835 3.45655L401.468 3.43083L418.213 3.45655H434.788L450.631 3.43083V12.1573V17.9652L450.688 27.2303V41.2084V42.7655V58.6346V60.9306V66.878V74.4485V75.8795L450.744 90.8918L450.462 95.6856L435.07 95.614H434.281L419.566 95.7691H415.845L402.877 95.6975L389.966 95.5901L384.666 95.6379L378.803 95.614L360.31 95.5782L346.046 95.8049L340.746 95.5901L340.52 103.015L340.689 107.267L337.814 104.947L337.983 103.987L335.502 101.127L334.036 102.065L333.416 105.279L331.725 105.575L328.511 106.474L327.778 105.267L324.057 106.226L321.689 105.125L320.111 106.013L319.659 107.81L318.306 107.125L313.458 107.018L312.894 109.417L309.962 107.799L309.906 106.119L308.383 101.626L306.128 99.5695L304.662 100.402L302.238 96.7709L303.027 94.8859L299.137 89.7655L297.84 86.5367L297.276 82.0941L295.303 80.0783L288.876 85.3583L286.902 83.0224L285.436 83.1791L286.508 79.7521L285.38 78.3134L288.199 75.6492L286.677 73.3074L289.101 58.1921L284.985 58.7944L283.689 56.4329L279.404 53.635L279.235 51.931L277.825 51.1028L275.683 47.3878L273.878 46.0477L273.597 44.4699L271.003 43.8854L269.875 42.2301L266.662 40.6349L268.748 39.2998L266.662 37.6258L267.733 36.6252L267.226 34.1955L265.534 32.891L262.095 27.6463V22.0749L262.151 15.3067V3.41797H282.843L293.217 3.45655Z" fill="#363636" stroke="#222222" stroke-miterlimit="10"/>
<path d="M467.094 262.47L467.038 272.274H466.418L466.474 280.94V287.064V289.339L466.418 297.797V302.188V306.157V314.432V314.637L466.361 323.681L466.249 328.488L466.192 331.928L466.08 339.972V348.128V356.214V357.836H461.964H455.762H451.703H451.026H438.058H436.987L420.017 357.786L414.04 357.806L410.263 357.836L409.812 359.716L411.672 361.831H399.607H385.286V370.139L372.037 370.159V349.918V343.368V335.289V324.565L372.15 309.368V302.085V281.973V262.491H382.58L396.675 262.47H397.634L412.518 262.596L419.848 262.565L424.414 262.554L432.195 262.565H433.266L451.251 262.554L465.741 262.47H467.094Z" fill="#363636" stroke="#222222" stroke-miterlimit="10"/>
<path d="M289.891 160.748H293.668V181.589L293.555 199.848V204.166V211.582V229.112L293.499 231.207L293.555 239.708L293.499 250.526V262.459V265.551L293.612 278.266L291.977 281.566L290.623 281.764L287.861 279.164L284.478 279.29L282.448 280.282L282.617 282.338L283.914 284.536L283.238 287.761L284.027 289.464L283.632 291.735L284.985 295.048L285.324 298.674L284.365 301.292L268.353 285.692L264.576 281.993L244.561 263.04L234.074 253.303L224.771 244.742L213.326 234.376L210.62 231.951L206.673 228.463L201.542 223.947L200.076 222.623L200.02 221.233V220.319V219.253L199.964 216.203L200.02 213.517L200.076 207.934V177.749V160.714L210.112 160.748H210.676L228.379 160.68L246.759 160.612L246.929 160.646L266.549 160.68L277.994 160.691L289.891 160.748Z" fill="#363636" stroke="#222222" stroke-miterlimit="10"/>
<path d="M142.455 69.2809L144.485 67.8545L147.191 70.0118L149.616 69.3053L150.969 68.9884L154.465 71.3141L156.325 76.5825L156.607 79.3535L156.889 81.2015L158.637 82.0943L164.726 83.3962L169.8 81.117L171.661 79.8369L176.171 79.426L177.355 80.0423L181.02 80.7307L182.035 82.0702L183.67 80.9359L185.699 81.298L189.759 79.1359L192.465 80.0906L196.694 79.4381L200.076 77.4423L202.162 76.9217L205.263 76.4493L206.729 74.8976L208.984 75.0674L213.72 74.7399L215.976 73.2225L231.537 73.1982H231.819L237.739 73.2347L239.655 73.259L248.507 73.3318L250.368 76.4735L254.427 79.0513L255.611 82.2028L254.145 84.3115L252.116 89.6578L250.593 93.8708L248.789 99.1771L246.478 101.282L244.673 106.143L243.658 107.03L243.715 111.045L245.406 111.505L248.789 114.33L247.605 116.586L248.225 117.935L247.436 120.267L246.759 121.121V124.603V160.612L228.379 160.68L210.676 160.748H210.112L200.076 160.714L186.263 160.748L177.355 160.68L164.106 160.441L149.334 160.544L144.767 160.589L140.031 160.714L133.886 160.646L131.687 158.476L130.446 153.828L130.728 146.573L128.36 142.874L129.713 140.271L131.236 133.532L130.897 132.709L133.265 130.249L134.562 131.515V131.48L134.619 131.34V131.306V131.282L134.562 131.201L134.506 131.097L133.829 129.761L131.969 131.526L133.829 126.13L135.352 123.4L134.111 124.533L134.675 120.63L135.07 118.006L136.31 118.252V118.17L135.07 117.232L135.352 111.599L136.31 102.944L136.084 100.105L137.212 94.6353L137.72 91.79L137.494 87.8942L138.171 79.4986L137.776 78.1079L138.283 72.0073L137.438 68.513L139.524 69.6708L140.933 68.5862L142.455 69.2809Z" fill="#363636" stroke="#222222" stroke-miterlimit="10"/>
<path d="M340.689 160.578L340.746 169.473L340.689 176.336V181.623L356.363 181.645H357.152L372.037 181.578V188.77V197.672V209.184V212.501V215.166L371.924 232.674L372.206 239.622V245.052L372.15 252.909V262.491L357.152 262.522L345.369 262.406L334.939 262.438L317.235 262.459H311.597H293.499V250.525L293.555 239.708L293.499 231.207L293.555 229.111V211.582V204.166V199.848L293.668 181.589V160.748L310.018 160.646L323.099 160.657L324.001 160.68L333.473 160.623L340.689 160.578Z" fill="#363636" stroke="#222222" stroke-miterlimit="10"/>
<path d="M154.859 46.6435L154.183 43.9725L155.367 43.4625L154.859 46.6435ZM160.779 42.7655L161.174 38.5755L162.752 41.4702L160.779 42.7655ZM160.497 37.1006L159.313 35.0477L159.99 33.6689L160.497 37.1006ZM162.64 29.3845L159.031 26.4104V23.4417L156.607 21.9989L158.186 18.4987L160.666 20.1486L157.114 21.6696L159.144 22.2648L160.103 26.7763L160.384 24.8701L162.752 26.3347L162.64 29.3845ZM154.746 17.2789L153.901 16.4013L155.028 14.0709L154.746 17.2789ZM152.999 14.5042L152.322 16.325L150.18 13.9051L151.251 12.4509L152.999 14.5042ZM154.69 13.2293L152.435 12.2339L153.901 10.3685L157.002 11.5187L154.69 13.2293ZM158.355 17.4696L159.144 14.81L161.287 16.0705L160.948 11.8891L160.103 8.76908L158.468 10.215L158.524 8.58982L156.212 5.94895L156.776 3.37939L173.014 3.49514L186.658 3.43084L198.723 3.45656L218.344 3.43084H228.379L240.388 3.41798L246.59 3.45656V7.10344L246.534 26.0697V27.6841V41.9312V44.4201V47.4622V60.9061V63.5285V63.5407L246.196 65.3144L248.338 69.3417L247.436 71.1193L248.507 73.3316L239.655 73.2588L237.738 73.2345L231.819 73.198H231.537L215.976 73.2223L213.72 74.7397L208.984 75.0672L206.729 74.8974L205.263 76.4491L202.162 76.9215L200.076 77.4421L196.693 79.4379L192.465 80.0904L189.759 79.1357L185.699 81.2979L183.67 80.9357L182.035 82.07L181.02 80.7305L177.355 80.0421L176.171 79.4259L171.661 79.8367L169.8 81.1168L164.726 83.396L158.637 82.0941L156.889 81.2013L156.607 79.3533L156.325 76.5823L154.464 71.3139L150.969 68.9883L149.616 69.3051V69.232L148.15 69.7071L145.556 67.0367L141.497 66.6216L139.185 67.7811L136.31 64.8498L136.141 59.5806L136.817 59.9858L136.987 64.5808L138.678 63.3081L138.847 60.7344L137.889 59.3227L139.749 56.876L135.746 56.4329L135.69 55.1272L135.07 52.5734L136.423 52.845L140.031 51.3625L134.9 49.6677L133.435 43.562L132.194 42.1803L131.687 38.0383L130.503 33.0416L127.627 29.9382L126.669 27.974L125.654 23.3532L126.838 19.3747L125.767 18.1431L127.233 18.0033L136.648 23.0242L142.568 23.3911L146.74 24.4532L151.194 23.6314L154.07 25.6153L156.043 25.0596L158.806 29.7494L155.028 32.3387L154.69 34.4588L153.111 36.3625L151.194 39.7866L151.082 41.7194L152.604 38.3506L154.183 36.0996L156.832 34.9099L157.904 31.8615L160.384 29.1957L161.23 33.0793L158.919 35.3359L160.892 38.588L159.99 41.0838L159.426 44.4947L157.96 43.7859L158.806 41.0588H158.637L155.536 44.793L156.043 42.0931L155.536 42.6037V42.8029L154.07 43.9103L153.901 45.8242L151.758 48.1193L153.788 46.4573L155.705 46.4201L157.678 48.1565L160.328 43.8854L162.019 42.9896L163.485 42.3422L162.019 37.0506L163.091 37.1756L163.203 37.1881L161.738 35.0477L162.414 32.3387L163.767 28.3268L165.402 26.4231L162.922 24.2004L162.414 21.7456L160.61 23.9981L160.272 21.3402L162.301 21.2389L162.64 20.1486L159.99 16.6812L158.355 17.4696Z" fill="#363636" stroke="#222222" stroke-miterlimit="10"/>
<path d="M378.803 95.6139L384.666 95.6378L389.966 95.5901L402.877 95.6974L415.845 95.769H419.566L434.281 95.6139H435.07L450.462 95.6855L450.519 105.125V113.706V114.577V120.84V128.447V129.005L450.575 139.209V147.628V160.577V166.977V169.788V173.381V181.556L436.593 181.623H431.349H416.972L414.943 181.611L406.485 181.544L399.269 181.522L389.853 181.544L372.037 181.578L357.153 181.645H356.363L340.689 181.623V176.336L340.746 169.472L340.689 160.577V149.725L340.746 138.875V132.5V128.505L340.689 118.005V107.267L340.52 103.015L340.746 95.5901L346.046 95.8048L360.31 95.5781L378.803 95.6139Z" fill="#363636" stroke="#222222" stroke-miterlimit="10"/>
<path d="M165 28H168V26M173 24H168V26M168 26H171V30M163 26V21H167V19M165 21.5V24" stroke="#A9A9A9"/>
<path d="M153 83H151.222V78H149" stroke="#A9A9A9"/>
<path d="M151 81H147" stroke="#A9A9A9"/>
<path d="M157 82.5H159.5V80H166" stroke="#A9A9A9"/>
<path d="M162 80V81.5" stroke="#A9A9A9"/>
<path d="M177 244V247.5H170V251" stroke="#A9A9A9"/>
<path d="M171.5 247V243H169" stroke="#A9A9A9"/>
<path d="M174 248V252" stroke="#A9A9A9"/>
<path d="M177 240V236.5H160V240" stroke="#A9A9A9"/>
<path d="M164 236L164 234" stroke="#A9A9A9"/>
<path d="M168 236.5V240" stroke="#A9A9A9"/>
<path d="M321 181V177H315" stroke="#A9A9A9"/>
<path d="M319 183H311V180" stroke="#A9A9A9"/>
<path d="M318 176.5V173" stroke="#A9A9A9"/>
<path d="M315 182.5V180" stroke="#A9A9A9"/>
<path d="M295 258L257 258L257 234.5" stroke="#A9A9A9"/>
<circle cx="173" cy="24" r="1" fill="#D4FFA0"/>
<path d="M167 80C167 80.5523 166.552 81 166 81C165.448 81 165 80.5523 165 80C165 79.4477 165.448 79 166 79C166.552 79 167 79.4477 167 80Z" fill="#D4FFA0"/>
<path d="M163 81.5C163 82.0523 162.552 82.5 162 82.5C161.448 82.5 161 82.0523 161 81.5C161 80.9477 161.448 80.5 162 80.5C162.552 80.5 163 80.9477 163 81.5Z" fill="#D4FFA0"/>
<path d="M150 78C150 78.5523 149.552 79 149 79C148.448 79 148 78.5523 148 78C148 77.4477 148.448 77 149 77C149.552 77 150 77.4477 150 78Z" fill="#D4FFA0"/>
<path d="M148.5 81C148.5 81.5523 148.052 82 147.5 82C146.948 82 146.5 81.5523 146.5 81C146.5 80.4477 146.948 80 147.5 80C148.052 80 148.5 80.4477 148.5 81Z" fill="#D4FFA0"/>
<circle cx="167" cy="19" r="1" fill="#D4FFA0"/>
<circle cx="165" cy="24" r="1" fill="#D4FFA0"/>
<circle cx="171" cy="30" r="1" fill="#D4FFA0"/>
<circle cx="164" cy="234" r="1" fill="#DEFFB6"/>
<circle cx="160" cy="240" r="1" fill="#DEFFB6"/>
<circle cx="168" cy="240" r="1" fill="#DEFFB6"/>
<circle cx="169" cy="243" r="1" fill="#DEFFB6"/>
<circle cx="170" cy="251" r="1" fill="#DEFFB6"/>
<circle cx="174" cy="252" r="1" fill="#DEFFB6"/>
<circle cx="318" cy="173" r="1" fill="#DEFFB6"/>
<circle cx="315" cy="177" r="1" fill="#DEFFB6"/>
<circle cx="311" cy="180" r="1" fill="#DEFFB6"/>
<circle cx="248" cy="264" r="1" fill="#DEFFB6"/>
<circle cx="271" cy="239" r="1" fill="#DEFFB6"/>
<circle cx="252" cy="225" r="1" fill="#DEFFB6"/>
<circle cx="289" cy="235" r="1" fill="#DEFFB6"/>
<circle cx="230" cy="250" r="1" fill="#DEFFB6"/>
<circle cx="267" cy="277" r="1" fill="#DEFFB6"/>
<circle cx="315" cy="180" r="1" fill="#DEFFB6"/>
</g>
<path d="M167 34H204.5V36.75H307.5V45H375" stroke="#A9A9A9" stroke-width="3"/>
<path d="M208 38V40" stroke="#A9A9A9"/>
<path d="M194 35.5V36" stroke="#A9A9A9"/>
<path d="M243 38V60" stroke="#A9A9A9" stroke-width="2"/>
<path d="M289 38V48" stroke="#A9A9A9" stroke-width="2"/>
<path d="M332 39L332 44" stroke="#A9A9A9" stroke-width="2"/>
<path d="M163 40V76H155V195C155 195 155 225.474 155 245H166.5V269.5H190.5L213 296.5" stroke="#A9A9A9" stroke-width="3"/>
<path d="M156 231H181V259H165.722" stroke="#A9A9A9" stroke-width="3"/>
<path d="M181 235.5H200V216L236 186H333.5" stroke="#A9A9A9" stroke-width="3"/>
<path d="M324 185.5V171L200 69C200 66.5532 200 39.1944 200 35" stroke="#A9A9A9" stroke-width="3"/>
<path d="M333.5 186H353V176H375" stroke="#A9A9A9" stroke-width="3"/>
<path d="M321 186.5V250.5L265 297" stroke="#A9A9A9" stroke-width="3"/>
<path d="M153.5 112H149" stroke="#A9A9A9" stroke-width="2"/>
<path d="M297 149H317V46.5" stroke="#A9A9A9" stroke-width="3"/>
<path d="M173 85V108.5V162H155" stroke="#A9A9A9" stroke-width="3"/>
<path d="M174.5 110H176" stroke="#A9A9A9" stroke-width="2"/>
<path d="M173 227V229.5" stroke="#A9A9A9" stroke-width="2"/>
<path d="M256 115V123" stroke="#A9A9A9" stroke-width="2"/>
<path d="M200 215V211" stroke="#A9A9A9" stroke-width="2"/>
<path d="M179 242H179.5" stroke="#A9A9A9"/>
<path d="M200 279.226V266" stroke="#A9A9A9" stroke-width="2"/>
<path d="M155 85L219 85" stroke="#A9A9A9" stroke-width="3"/>
<path d="M284 138L284 146" stroke="#A9A9A9" stroke-width="2"/>
<path d="M318 125H319" stroke="#A9A9A9" stroke-width="2"/>
<path d="M316 139H315" stroke="#A9A9A9" stroke-width="2"/>
<path d="M297 270V260" stroke="#A9A9A9" stroke-width="2"/>
<path d="M311 260H327" stroke="#A9A9A9" stroke-width="2"/>
<rect x="182" y="77" width="16" height="16" fill="#D1FF99"/>
<rect x="159" y="32" width="8" height="8" fill="#D4FFA0"/>
<rect x="153" y="81" width="4" height="4" fill="#D4FFA0"/>
<rect x="157" y="248" width="8" height="8" fill="#D4FFA0"/>
<rect x="161" y="26" width="4" height="4" fill="#D4FFA0"/>
<rect x="192" y="36" width="4" height="4" fill="#D4FFA0"/>
<rect x="206" y="40" width="4" height="4" fill="#D4FFA0"/>
<rect x="145" y="110" width="4" height="4" fill="#D4FFA0"/>
<rect x="176" y="108" width="4" height="4" fill="#D4FFA0"/>
<rect x="2" y="2" width="371" height="296" stroke="#363636" stroke-width="4"/>
<rect x="2" y="2" width="371" height="296" stroke="#363636" stroke-width="4"/>
<rect x="241" y="60" width="4" height="4" fill="#D4FFA0"/>
<rect x="254" y="123" width="4" height="4" fill="#D4FFA0"/>
<rect x="282" y="145" width="4" height="4" fill="#D4FFA0"/>
<rect x="198" y="207" width="4" height="4" fill="#D4FFA0"/>
<rect x="175" y="240" width="4" height="4" fill="#D4FFA0"/>
<rect x="198" y="262" width="4" height="4" fill="#D4FFA0"/>
<rect x="295" y="256" width="4" height="4" fill="#D4FFA0"/>
<rect x="287" y="48" width="4" height="4" fill="#D4FFA0"/>
<rect x="327" y="258" width="4" height="4" fill="#D4FFA0"/>
<rect x="319" y="181" width="4" height="4" fill="#D4FFA0"/>
<rect x="311" y="137" width="4" height="4" fill="#D4FFA0"/>
<rect x="319" y="123" width="4" height="4" fill="#D4FFA0"/>
<rect x="330" y="35" width="4" height="4" fill="#D4FFA0"/>
<rect x="168" y="254" width="8" height="8" fill="#D4FFA0"/>
<path d="M163 30V32" stroke="#A9A9A9"/>
<rect x="171" y="223" width="4" height="4" fill="#D4FFA0"/>
<circle cx="257" cy="235" r="2" fill="#A9A9A9"/>
<circle cx="257" cy="234" r="7.5" stroke="white" stroke-opacity="0.25"/>
<circle cx="257" cy="234" r="20.5" stroke="white" stroke-opacity="0.24"/>
<circle cx="257" cy="234" r="36.5" stroke="white" stroke-opacity="0.23"/>
<path d="M96.75 266.42V262.43H97.2C98.44 262.43 98.98 263.01 98.98 264.37V264.45C98.98 265.78 98.44 266.42 97.22 266.42H96.75ZM94.69 268H97.28C99.8 268 101.12 266.65 101.12 264.42V264.34C101.12 262.12 99.83 260.85 97.29 260.85H94.69V268ZM103.383 268.12C104.223 268.12 104.683 267.77 104.933 267.39V268H106.673V264.61C106.673 263.22 105.753 262.63 104.313 262.63C102.883 262.63 101.893 263.25 101.813 264.51H103.493C103.533 264.18 103.713 263.89 104.203 263.89C104.773 263.89 104.893 264.22 104.893 264.72V264.84H104.393C102.653 264.84 101.613 265.32 101.613 266.55C101.613 267.66 102.443 268.12 103.383 268.12ZM104.003 266.91C103.583 266.91 103.383 266.72 103.383 266.42C103.383 265.99 103.703 265.85 104.423 265.85H104.893V266.17C104.893 266.62 104.513 266.91 104.003 266.91ZM109.725 268.12C110.145 268.12 110.485 268.03 110.715 267.97V266.61C110.555 266.67 110.405 266.7 110.205 266.7C109.865 266.7 109.675 266.53 109.675 266.15V263.99H110.705V262.77H109.675V261.68H107.885V262.77H107.255V263.99H107.885V266.32C107.885 267.55 108.545 268.12 109.725 268.12ZM113.002 268.12C113.842 268.12 114.302 267.77 114.552 267.39V268H116.292V264.61C116.292 263.22 115.372 262.63 113.932 262.63C112.502 262.63 111.512 263.25 111.432 264.51H113.112C113.152 264.18 113.332 263.89 113.822 263.89C114.392 263.89 114.512 264.22 114.512 264.72V264.84H114.012C112.272 264.84 111.232 265.32 111.232 266.55C111.232 267.66 112.062 268.12 113.002 268.12ZM113.622 266.91C113.202 266.91 113.002 266.72 113.002 266.42C113.002 265.99 113.322 265.85 114.042 265.85H114.512V266.17C114.512 266.62 114.132 266.91 113.622 266.91ZM122.806 268.12C124.656 268.12 125.996 267.16 126.136 265.31H124.096C123.996 266.1 123.486 266.48 122.766 266.48C121.786 266.48 121.236 265.75 121.236 264.46V264.38C121.236 263.08 121.816 262.36 122.736 262.36C123.456 262.36 123.856 262.76 123.936 263.49H126.046C125.876 261.6 124.586 260.74 122.726 260.74C120.636 260.74 119.076 262.19 119.076 264.39V264.47C119.076 266.66 120.306 268.12 122.806 268.12ZM129.483 268.12C131.063 268.12 131.973 267.45 132.133 266.27H130.453C130.383 266.62 130.133 266.89 129.543 266.89C128.903 266.89 128.503 266.49 128.453 265.8H132.133V265.33C132.133 263.45 130.903 262.63 129.473 262.63C127.893 262.63 126.643 263.69 126.643 265.37V265.45C126.643 267.16 127.843 268.12 129.483 268.12ZM128.473 264.79C128.563 264.16 128.933 263.81 129.473 263.81C130.053 263.81 130.363 264.16 130.393 264.79H128.473ZM132.899 268H134.689V265.07C134.689 264.4 135.049 264.08 135.579 264.08C136.099 264.08 136.329 264.37 136.329 264.96V268H138.119V264.6C138.119 263.26 137.419 262.63 136.409 262.63C135.539 262.63 134.969 263.07 134.689 263.61V262.77H132.899V268ZM141.219 268.12C141.639 268.12 141.979 268.03 142.209 267.97V266.61C142.049 266.67 141.899 266.7 141.699 266.7C141.359 266.7 141.169 266.53 141.169 266.15V263.99H142.199V262.77H141.169V261.68H139.379V262.77H138.749V263.99H139.379V266.32C139.379 267.55 140.039 268.12 141.219 268.12ZM145.586 268.12C147.166 268.12 148.076 267.45 148.236 266.27H146.556C146.486 266.62 146.236 266.89 145.646 266.89C145.006 266.89 144.606 266.49 144.556 265.8H148.236V265.33C148.236 263.45 147.006 262.63 145.576 262.63C143.996 262.63 142.746 263.69 142.746 265.37V265.45C142.746 267.16 143.946 268.12 145.586 268.12ZM144.576 264.79C144.666 264.16 145.036 263.81 145.576 263.81C146.156 263.81 146.466 264.16 146.496 264.79H144.576ZM149.003 268H150.793V265.52C150.793 264.68 151.393 264.34 152.483 264.37V262.7C151.673 262.69 151.123 263.03 150.793 263.81V262.77H149.003V268ZM155.33 268.12C156.78 268.12 157.7 267.56 157.7 266.32C157.7 265.2 157 264.82 155.55 264.64C154.91 264.56 154.67 264.46 154.67 264.21C154.67 263.97 154.87 263.8 155.26 263.8C155.67 263.8 155.86 263.97 155.93 264.32H157.55C157.43 263.07 156.53 262.63 155.24 262.63C154.03 262.63 153 263.19 153 264.35C153 265.44 153.59 265.85 154.99 266.03C155.71 266.13 155.96 266.25 155.96 266.5C155.96 266.76 155.76 266.93 155.32 266.93C154.81 266.93 154.64 266.72 154.58 266.34H152.93C152.97 267.5 153.84 268.12 155.33 268.12Z" fill="white"/>
<path d="M89.06 175H91.12V169.43H92.97V167.85H87.21V169.43H89.06V175ZM93.7116 175H95.5016V172.07C95.5016 171.4 95.8616 171.08 96.3916 171.08C96.9116 171.08 97.1416 171.37 97.1416 171.96V175H98.9316V171.6C98.9316 170.26 98.2316 169.63 97.2216 169.63C96.3516 169.63 95.7816 170.07 95.5016 170.61V167.47H93.7116V175ZM102.512 175.12C104.092 175.12 105.002 174.45 105.162 173.27H103.482C103.412 173.62 103.162 173.89 102.572 173.89C101.932 173.89 101.532 173.49 101.482 172.8H105.162V172.33C105.162 170.45 103.932 169.63 102.502 169.63C100.922 169.63 99.6719 170.69 99.6719 172.37V172.45C99.6719 174.16 100.872 175.12 102.512 175.12ZM101.502 171.79C101.592 171.16 101.962 170.81 102.502 170.81C103.082 170.81 103.392 171.16 103.422 171.79H101.502ZM108.101 175H110.171V167.85H108.101V175ZM111.417 175H113.207V172.07C113.207 171.4 113.567 171.08 114.097 171.08C114.617 171.08 114.847 171.37 114.847 171.96V175H116.637V171.6C116.637 170.26 115.937 169.63 114.927 169.63C114.057 169.63 113.487 170.07 113.207 170.61V169.77H111.417V175ZM119.737 175.12C120.157 175.12 120.497 175.03 120.727 174.97V173.61C120.567 173.67 120.417 173.7 120.217 173.7C119.877 173.7 119.687 173.53 119.687 173.15V170.99H120.717V169.77H119.687V168.68H117.897V169.77H117.267V170.99H117.897V173.32C117.897 174.55 118.557 175.12 119.737 175.12ZM124.104 175.12C125.684 175.12 126.594 174.45 126.754 173.27H125.074C125.004 173.62 124.754 173.89 124.164 173.89C123.524 173.89 123.124 173.49 123.074 172.8H126.754V172.33C126.754 170.45 125.524 169.63 124.094 169.63C122.514 169.63 121.264 170.69 121.264 172.37V172.45C121.264 174.16 122.464 175.12 124.104 175.12ZM123.094 171.79C123.184 171.16 123.554 170.81 124.094 170.81C124.674 170.81 124.984 171.16 125.014 171.79H123.094ZM127.52 175H129.31V172.52C129.31 171.68 129.91 171.34 131 171.37V169.7C130.19 169.69 129.64 170.03 129.31 170.81V169.77H127.52V175ZM131.798 175H133.588V172.07C133.588 171.4 133.948 171.08 134.478 171.08C134.998 171.08 135.228 171.37 135.228 171.96V175H137.018V171.6C137.018 170.26 136.318 169.63 135.308 169.63C134.438 169.63 133.868 170.07 133.588 170.61V169.77H131.798V175ZM140.598 175.12C142.178 175.12 143.088 174.45 143.248 173.27H141.568C141.498 173.62 141.248 173.89 140.658 173.89C140.018 173.89 139.618 173.49 139.568 172.8H143.248V172.33C143.248 170.45 142.018 169.63 140.588 169.63C139.008 169.63 137.758 170.69 137.758 172.37V172.45C137.758 174.16 138.958 175.12 140.598 175.12ZM139.588 171.79C139.678 171.16 140.048 170.81 140.588 170.81C141.168 170.81 141.478 171.16 141.508 171.79H139.588ZM146.094 175.12C146.514 175.12 146.854 175.03 147.084 174.97V173.61C146.924 173.67 146.774 173.7 146.574 173.7C146.234 173.7 146.044 173.53 146.044 173.15V170.99H147.074V169.77H146.044V168.68H144.254V169.77H143.624V170.99H144.254V173.32C144.254 174.55 144.914 175.12 146.094 175.12Z" fill="white"/>
<path d="M174.69 19H176.73V16.44H177.21L178.66 19H180.82L179.11 16.04C179.86 15.75 180.4 15.18 180.4 14.16V14.12C180.4 12.61 179.36 11.85 177.49 11.85H174.69V19ZM176.73 15.11V13.39H177.4C178.06 13.39 178.42 13.62 178.42 14.2V14.24C178.42 14.82 178.08 15.11 177.39 15.11H176.73ZM183.809 19.12C185.389 19.12 186.299 18.45 186.459 17.27H184.779C184.709 17.62 184.459 17.89 183.869 17.89C183.229 17.89 182.829 17.49 182.779 16.8H186.459V16.33C186.459 14.45 185.229 13.63 183.799 13.63C182.219 13.63 180.969 14.69 180.969 16.37V16.45C180.969 18.16 182.169 19.12 183.809 19.12ZM182.799 15.79C182.889 15.16 183.259 14.81 183.799 14.81C184.379 14.81 184.689 15.16 184.719 15.79H182.799ZM189.324 19.12C190.774 19.12 191.694 18.56 191.694 17.32C191.694 16.2 190.994 15.82 189.544 15.64C188.904 15.56 188.664 15.46 188.664 15.21C188.664 14.97 188.864 14.8 189.254 14.8C189.664 14.8 189.854 14.97 189.924 15.32H191.544C191.424 14.07 190.524 13.63 189.234 13.63C188.024 13.63 186.994 14.19 186.994 15.35C186.994 16.44 187.584 16.85 188.984 17.03C189.704 17.13 189.954 17.25 189.954 17.5C189.954 17.76 189.754 17.93 189.314 17.93C188.804 17.93 188.634 17.72 188.574 17.34H186.924C186.964 18.5 187.834 19.12 189.324 19.12ZM192.471 19H194.261V13.77H192.471V19ZM193.361 13.27C193.921 13.27 194.351 12.88 194.351 12.35C194.351 11.82 193.921 11.42 193.361 11.42C192.801 11.42 192.381 11.82 192.381 12.35C192.381 12.88 192.801 13.27 193.361 13.27ZM197.31 19.12C198.1 19.12 198.68 18.69 198.94 18.15V19H200.73V11.47H198.94V14.51C198.64 13.98 198.15 13.63 197.33 13.63C196.09 13.63 195.11 14.58 195.11 16.36V16.44C195.11 18.25 196.1 19.12 197.31 19.12ZM197.94 17.75C197.32 17.75 196.93 17.3 196.93 16.42V16.34C196.93 15.43 197.29 14.98 197.96 14.98C198.62 14.98 198.99 15.45 198.99 16.33V16.41C198.99 17.3 198.59 17.75 197.94 17.75ZM204.346 19.12C205.926 19.12 206.836 18.45 206.996 17.27H205.316C205.246 17.62 204.996 17.89 204.406 17.89C203.766 17.89 203.366 17.49 203.316 16.8H206.996V16.33C206.996 14.45 205.766 13.63 204.336 13.63C202.756 13.63 201.506 14.69 201.506 16.37V16.45C201.506 18.16 202.706 19.12 204.346 19.12ZM203.336 15.79C203.426 15.16 203.796 14.81 204.336 14.81C204.916 14.81 205.226 15.16 205.256 15.79H203.336ZM207.762 19H209.552V16.07C209.552 15.4 209.912 15.08 210.442 15.08C210.962 15.08 211.192 15.37 211.192 15.96V19H212.982V15.6C212.982 14.26 212.282 13.63 211.272 13.63C210.402 13.63 209.832 14.07 209.552 14.61V13.77H207.762V19ZM216.083 19.12C216.503 19.12 216.843 19.03 217.073 18.97V17.61C216.913 17.67 216.763 17.7 216.563 17.7C216.223 17.7 216.033 17.53 216.033 17.15V14.99H217.063V13.77H216.033V12.68H214.243V13.77H213.613V14.99H214.243V17.32C214.243 18.55 214.903 19.12 216.083 19.12ZM217.939 19H219.729V13.77H217.939V19ZM218.829 13.27C219.389 13.27 219.819 12.88 219.819 12.35C219.819 11.82 219.389 11.42 218.829 11.42C218.269 11.42 217.849 11.82 217.849 12.35C217.849 12.88 218.269 13.27 218.829 13.27ZM222.309 19.12C223.149 19.12 223.609 18.77 223.859 18.39V19H225.599V15.61C225.599 14.22 224.679 13.63 223.239 13.63C221.809 13.63 220.819 14.25 220.739 15.51H222.419C222.459 15.18 222.639 14.89 223.129 14.89C223.699 14.89 223.819 15.22 223.819 15.72V15.84H223.319C221.579 15.84 220.539 16.32 220.539 17.55C220.539 18.66 221.369 19.12 222.309 19.12ZM222.929 17.91C222.509 17.91 222.309 17.72 222.309 17.42C222.309 16.99 222.629 16.85 223.349 16.85H223.819V17.17C223.819 17.62 223.439 17.91 222.929 17.91ZM226.67 19H228.45V11.47H226.67V19ZM231.692 19H233.492V14.51L236.102 19H238.082V11.85H236.292V15.88L234.002 11.85H231.692V19ZM241.817 19.12C243.397 19.12 244.307 18.45 244.467 17.27H242.787C242.717 17.62 242.467 17.89 241.877 17.89C241.237 17.89 240.837 17.49 240.787 16.8H244.467V16.33C244.467 14.45 243.237 13.63 241.807 13.63C240.227 13.63 238.977 14.69 238.977 16.37V16.45C238.977 18.16 240.177 19.12 241.817 19.12ZM240.807 15.79C240.897 15.16 241.267 14.81 241.807 14.81C242.387 14.81 242.697 15.16 242.727 15.79H240.807ZM247.313 19.12C247.733 19.12 248.073 19.03 248.303 18.97V17.61C248.143 17.67 247.993 17.7 247.793 17.7C247.453 17.7 247.263 17.53 247.263 17.15V14.99H248.293V13.77H247.263V12.68H245.473V13.77H244.843V14.99H245.473V17.32C245.473 18.55 246.133 19.12 247.313 19.12ZM250.26 19H252L252.81 16.08L253.59 19H255.3L256.96 13.77H255.26L254.41 16.9L253.63 13.77H252.19L251.31 16.9L250.55 13.77H248.68L250.26 19ZM259.903 17.79C259.213 17.79 258.863 17.3 258.863 16.4V16.32C258.863 15.44 259.233 14.97 259.903 14.97C260.583 14.97 260.933 15.46 260.933 16.34V16.42C260.933 17.29 260.573 17.79 259.903 17.79ZM259.893 19.12C261.503 19.12 262.753 18.1 262.753 16.4V16.32C262.753 14.66 261.513 13.63 259.903 13.63C258.283 13.63 257.033 14.69 257.033 16.37V16.45C257.033 18.14 258.283 19.12 259.893 19.12ZM263.534 19H265.324V16.52C265.324 15.68 265.924 15.34 267.014 15.37V13.7C266.204 13.69 265.654 14.03 265.324 14.81V13.77H263.534V19ZM267.811 19H269.601V16.71L271.011 19H273.011L271.161 16.12L272.871 13.77H271.011L269.601 15.84V11.47H267.811V19ZM275.486 19.12C276.936 19.12 277.856 18.56 277.856 17.32C277.856 16.2 277.156 15.82 275.706 15.64C275.066 15.56 274.826 15.46 274.826 15.21C274.826 14.97 275.026 14.8 275.416 14.8C275.826 14.8 276.016 14.97 276.086 15.32H277.706C277.586 14.07 276.686 13.63 275.396 13.63C274.186 13.63 273.156 14.19 273.156 15.35C273.156 16.44 273.746 16.85 275.146 17.03C275.866 17.13 276.116 17.25 276.116 17.5C276.116 17.76 275.916 17.93 275.476 17.93C274.966 17.93 274.796 17.72 274.736 17.34H273.086C273.126 18.5 273.996 19.12 275.486 19.12Z" fill="white"/>
<path d="M226.05 218.12C227.9 218.12 229.24 217.16 229.38 215.31H227.34C227.24 216.1 226.73 216.48 226.01 216.48C225.03 216.48 224.48 215.75 224.48 214.46V214.38C224.48 213.08 225.06 212.36 225.98 212.36C226.7 212.36 227.1 212.76 227.18 213.49H229.29C229.12 211.6 227.83 210.74 225.97 210.74C223.88 210.74 222.32 212.19 222.32 214.39V214.47C222.32 216.66 223.55 218.12 226.05 218.12ZM232.727 218.12C234.307 218.12 235.217 217.45 235.377 216.27H233.697C233.627 216.62 233.377 216.89 232.787 216.89C232.147 216.89 231.747 216.49 231.697 215.8H235.377V215.33C235.377 213.45 234.147 212.63 232.717 212.63C231.137 212.63 229.887 213.69 229.887 215.37V215.45C229.887 217.16 231.087 218.12 232.727 218.12ZM231.717 214.79C231.807 214.16 232.177 213.81 232.717 213.81C233.297 213.81 233.607 214.16 233.637 214.79H231.717ZM236.193 218H237.973V210.47H236.193V218ZM239.133 218H240.913V210.47H239.133V218ZM244.155 218H245.955V213.51L248.565 218H250.545V210.85H248.755V214.88L246.465 210.85H244.155V218ZM254.279 218.12C255.859 218.12 256.769 217.45 256.929 216.27H255.249C255.179 216.62 254.929 216.89 254.339 216.89C253.699 216.89 253.299 216.49 253.249 215.8H256.929V215.33C256.929 213.45 255.699 212.63 254.269 212.63C252.689 212.63 251.439 213.69 251.439 215.37V215.45C251.439 217.16 252.639 218.12 254.279 218.12ZM253.269 214.79C253.359 214.16 253.729 213.81 254.269 213.81C254.849 213.81 255.159 214.16 255.189 214.79H253.269ZM259.776 218.12C260.196 218.12 260.536 218.03 260.766 217.97V216.61C260.606 216.67 260.456 216.7 260.256 216.7C259.916 216.7 259.726 216.53 259.726 216.15V213.99H260.756V212.77H259.726V211.68H257.936V212.77H257.306V213.99H257.936V216.32C257.936 217.55 258.596 218.12 259.776 218.12ZM262.723 218H264.463L265.273 215.08L266.053 218H267.763L269.423 212.77H267.723L266.873 215.9L266.093 212.77H264.653L263.773 215.9L263.013 212.77H261.143L262.723 218ZM272.366 216.79C271.676 216.79 271.326 216.3 271.326 215.4V215.32C271.326 214.44 271.696 213.97 272.366 213.97C273.046 213.97 273.396 214.46 273.396 215.34V215.42C273.396 216.29 273.036 216.79 272.366 216.79ZM272.356 218.12C273.966 218.12 275.216 217.1 275.216 215.4V215.32C275.216 213.66 273.976 212.63 272.366 212.63C270.746 212.63 269.496 213.69 269.496 215.37V215.45C269.496 217.14 270.746 218.12 272.356 218.12ZM275.997 218H277.787V215.52C277.787 214.68 278.387 214.34 279.477 214.37V212.7C278.667 212.69 278.117 213.03 277.787 213.81V212.77H275.997V218ZM280.274 218H282.064V215.71L283.474 218H285.474L283.624 215.12L285.334 212.77H283.474L282.064 214.84V210.47H280.274V218ZM287.949 218.12C289.399 218.12 290.319 217.56 290.319 216.32C290.319 215.2 289.619 214.82 288.169 214.64C287.529 214.56 287.289 214.46 287.289 214.21C287.289 213.97 287.489 213.8 287.879 213.8C288.289 213.8 288.479 213.97 288.549 214.32H290.169C290.049 213.07 289.149 212.63 287.859 212.63C286.649 212.63 285.619 213.19 285.619 214.35C285.619 215.44 286.209 215.85 287.609 216.03C288.329 216.13 288.579 216.25 288.579 216.5C288.579 216.76 288.379 216.93 287.939 216.93C287.429 216.93 287.259 216.72 287.199 216.34H285.549C285.589 217.5 286.459 218.12 287.949 218.12Z" fill="white"/>
<path d="M225.75 278.42V274.43H226.2C227.44 274.43 227.98 275.01 227.98 276.37V276.45C227.98 277.78 227.44 278.42 226.22 278.42H225.75ZM223.69 280H226.28C228.8 280 230.12 278.65 230.12 276.42V276.34C230.12 274.12 228.83 272.85 226.29 272.85H223.69V280ZM233.522 280.12C235.102 280.12 236.012 279.45 236.172 278.27H234.492C234.422 278.62 234.172 278.89 233.582 278.89C232.942 278.89 232.542 278.49 232.492 277.8H236.172V277.33C236.172 275.45 234.942 274.63 233.512 274.63C231.932 274.63 230.682 275.69 230.682 277.37V277.45C230.682 279.16 231.882 280.12 233.522 280.12ZM232.512 276.79C232.602 276.16 232.972 275.81 233.512 275.81C234.092 275.81 234.402 276.16 234.432 276.79H232.512ZM238.213 280H240.163L242.073 274.77H240.363L239.293 278.14L238.203 274.77H236.293L238.213 280ZM242.721 280H244.511V274.77H242.721V280ZM243.611 274.27C244.171 274.27 244.601 273.88 244.601 273.35C244.601 272.82 244.171 272.42 243.611 272.42C243.051 272.42 242.631 272.82 242.631 273.35C242.631 273.88 243.051 274.27 243.611 274.27ZM248.09 280.12C249.78 280.12 250.67 279.26 250.72 277.94H249.11C249.05 278.51 248.7 278.81 248.2 278.81C247.52 278.81 247.17 278.34 247.17 277.43V277.35C247.17 276.47 247.54 276.02 248.17 276.02C248.69 276.02 248.93 276.29 249.01 276.78H250.69C250.59 275.19 249.41 274.63 248.13 274.63C246.59 274.63 245.34 275.63 245.34 277.37V277.45C245.34 279.21 246.53 280.12 248.09 280.12ZM254.01 280.12C255.59 280.12 256.5 279.45 256.66 278.27H254.98C254.91 278.62 254.66 278.89 254.07 278.89C253.43 278.89 253.03 278.49 252.98 277.8H256.66V277.33C256.66 275.45 255.43 274.63 254 274.63C252.42 274.63 251.17 275.69 251.17 277.37V277.45C251.17 279.16 252.37 280.12 254.01 280.12ZM253 276.79C253.09 276.16 253.46 275.81 254 275.81C254.58 275.81 254.89 276.16 254.92 276.79H253ZM259.525 280.12C260.975 280.12 261.895 279.56 261.895 278.32C261.895 277.2 261.195 276.82 259.745 276.64C259.105 276.56 258.865 276.46 258.865 276.21C258.865 275.97 259.065 275.8 259.455 275.8C259.865 275.8 260.055 275.97 260.125 276.32H261.745C261.625 275.07 260.725 274.63 259.435 274.63C258.225 274.63 257.195 275.19 257.195 276.35C257.195 277.44 257.785 277.85 259.185 278.03C259.905 278.13 260.155 278.25 260.155 278.5C260.155 278.76 259.955 278.93 259.515 278.93C259.005 278.93 258.835 278.72 258.775 278.34H257.125C257.165 279.5 258.035 280.12 259.525 280.12Z" fill="white"/>
<defs>
<clipPath id="clip0">
<rect width="375" height="300" fill="white"/>
</clipPath>
</defs>
</svg>
